HIERARCHY
ROOT Hips
{
	OFFSET 0.000000 0.000000 0.000000 
	CHANNELS 6 Xposition Yposition Zposition Yrotation Zrotation Xrotation 
	JOINT Lumbar
	{
		OFFSET 0.000000 0.000000 0.000000 
		CHANNELS 3 Zrotation Xrotation Yrotation
		JOINT Neck
		{
			OFFSET 0.000000 0.445665 0.000000 
			CHANNELS 3 Zrotation Xrotation Yrotation
			End Site
			{
				OFFSET 0.000000 0.227535 0.000000 
			}
		}
		JOINT RightShoulder
		{
			OFFSET 0.019635 0.377685 0.194865 
			CHANNELS 3 Zrotation Xrotation Yrotation
			JOINT RightElbow
			{
				OFFSET 0.000000 -0.243375 0.000000 
				CHANNELS 2 Zrotation Yrotation
				JOINT RightWrist
				{
					OFFSET 0.000000 -0.264825 0.000000 
					CHANNELS 2 Zrotation Xrotation
					End Site
					{
						OFFSET 0.006600 -0.176220 0.000990 
					}
				}
			}
		}
		JOINT LeftShoulder
		{
			OFFSET 0.019635 0.377685 -0.194865 
			CHANNELS 3 Zrotation Xrotation Yrotation
			JOINT LeftElbow
			{
				OFFSET 0.000000 -0.243375 0.000000 
				CHANNELS 2 Zrotation Yrotation
				JOINT LeftWrist
				{
					OFFSET 0.000000 -0.264825 0.000000 
					CHANNELS 2 Zrotation Xrotation
					End Site
					{
						OFFSET 0.006600 -0.176220 -0.000990 
					}
				}
			}
		}
	}
	JOINT RightHip
	{
		OFFSET 0.052140 -0.069960 0.075570 
		CHANNELS 3 Zrotation Xrotation Yrotation
		JOINT RightKnee
		{
			OFFSET 0.000000 -0.402270 0.000000 
			CHANNELS 1 Zrotation
			JOINT RightAnkle
			{
				OFFSET 0.000000 -0.404085 0.000000 
				CHANNELS 3 Zrotation Xrotation Yrotation
				End Site
				{
					OFFSET 0.204105 -0.089430 0.008415 
				}
			}
		}
	}
	JOINT LeftHip
	{
		OFFSET 0.052140 -0.069960 -0.075570 
		CHANNELS 3 Zrotation Xrotation Yrotation
		JOINT LeftKnee
		{
			OFFSET 0.000000 -0.402270 0.000000 
			CHANNELS 1 Zrotation
			JOINT LeftAnkle
			{
				OFFSET 0.000000 -0.404085 0.000000 
				CHANNELS 3 Zrotation Xrotation Yrotation
				End Site
				{
					OFFSET 0.204105 -0.089430 -0.008415 
				}
			}
		}
	}
}
MOTION
Frames: 19
Frame Time: 0.02
2.09051 0.29795 0.19875 -18.81114 -31.84184 17.49696 -52.92825 12.98624 1.67284 -37.29154 -4.47141 -0.8307 108.04551 3.04583 29.5559 11.40486 75.36794 -12.20694 -1.19018 86.30488 23.39407 -55.34017 37.92218 -81.83162 -10.8363 2.08444 67.47523 -16.04818 21.84188 -66.46971 -6.40544 -4.6448 -3.08782 57.91885 -0.72528 19.91499 -63.94405 -6.76061 5.21325 3.41315
2.09087 0.29873 0.19909 -16.00618 -36.42959 19.45606 -48.29283 12.73195 1.22632 -39.92576 -5.06331 -0.83071 107.47724 1.87817 31.68851 12.33253 75.30841 -12.38636 -0.98624 86.25026 23.63522 -54.88281 38.35712 -81.71071 -11.05537 1.70604 72.47733 -15.74678 21.89378 -65.7492 -6.48315 -4.66947 -3.10496 63.15816 -0.60688 19.84045 -63.42226 -6.81461 5.22362 3.42284
2.09128 0.29979 0.19952 -11.08567 -44.04612 23.06431 -40.47132 12.4569 0.89694 -42.38276 -5.5619 -0.83072 106.71467 0.63489 34.59057 13.54812 75.15665 -12.5442 -0.73372 86.4756 23.65966 -54.58421 38.69708 -81.57812 -11.32432 1.32655 81.09633 -15.57918 21.78015 -64.6521 -6.58606 -4.66423 -3.10666 71.9639 -0.49929 19.88968 -62.59709 -6.89464 5.23346 3.43409
2.09168 0.30071 0.1999 -7.29189 -50.03424 25.79354 -34.36785 12.19856 0.51983 -44.87057 -6.09378 -0.83072 106.03702 -0.54965 37.06429 14.60919 75.03204 -12.70888 -0.51441 86.57342 23.78047 -54.21803 39.07309 -81.45321 -11.56446 0.95938 87.78049 -15.36397 21.72176 -63.7572 -6.67304 -4.6719 -3.11454 78.85414 -0.38727 19.875 -61.93489 -6.95975 5.24288 3.44406
2.09206 0.30169 0.20033 -2.82426 -57.04394 29.04346 -27.16983 11.91719 0.11208 -47.58615 -6.67014 -0.83073 105.35624 -1.84073 39.90833 15.78502 74.96202 -12.88371 -0.24321 86.67362 23.91812 -53.827 39.47927 -81.31917 -11.83099 0.53946 95.63619 -15.08725 21.74935 -62.73461 -6.77907 -4.68427 -3.12687 86.93832 -0.27042 19.88646 -61.17018 -7.03682 5.25472 3.45616
2.09248 0.3026 0.20066 0.73965 -62.65777 31.60618 -21.48259 11.6692 -0.20078 -49.77756 -7.12946 -0.83074 104.64302 -2.92451 42.14934 16.78511 74.76244 -13.03322 -0.06955 86.83493 23.96654 -53.52754 39.79951 -81.20079 -12.05392 0.22932 101.93063 -14.97177 21.55862 -61.88848 -6.85117 -4.67826 -3.12552 93.39696 -0.16758 19.87517 -60.54724 -7.0963 5.26195 3.46457
2.09301 0.30328 0.20069 1.45016 -63.72766 31.92884 -20.67215 11.60744 -0.28551 -50.57375 -7.28738 -0.83074 103.88199 -3.44124 42.53347 17.22169 74.18939 -13.11768 -0.1884 87.09648 23.81706 -53.4432 39.91126 -81.13133 -12.14789 0.23455 103.06285 -15.27967 20.79818 -61.60515 -6.82596 -4.63944 -3.09556 94.56637 -0.09646 19.77304 -60.36829 -7.09126 5.25099 3.45873
2.09358 0.30387 0.20061 1.16355 -63.29095 31.5008 -21.49119 11.56781 -0.277 -50.84417 -7.33006 -0.83074 103.09867 -3.74211 42.2794 17.47066 73.4967 -13.17778 -0.40606 87.40989 23.58493 -53.44652 39.93865 -81.07735 -12.19563 0.34887 102.50659 -15.74403 19.82579 -61.51388 -6.7655 -4.58163 -3.05161 93.97868 -0.03982 19.645 -60.34475 -7.06897 5.23616 3.44961
2.09413 0.30448 0.20057 1.22159 -63.50952 31.37484 -21.61517 11.4541 -0.30651 -51.34746 -7.42531 -0.83074 102.33151 -4.12591 42.31417 17.80846 72.88472 -13.24972 -0.57161 87.69913 23.39241 -53.40934 40.00121 -81.01441 -12.26199 0.40568 102.70288 -16.13078 18.95364 -61.34611 -6.7192 -4.5247 -3.01004 94.14689 0.01978 19.52731 -60.26482 -7.06151 5.22713 3.44464
2.09467 0.30518 0.20058 1.77038 -63.93352 31.45133 -21.46756 11.59182 -0.3497 -51.87175 -7.51656 -0.83074 101.53105 -4.57631 42.3812 18.14171 72.159 -13.31781 -0.76478 87.99987 23.18378 -53.37887 40.07443 -80.95943 -12.33979 0.49495 103.06471 -16.5501 18.05504 -61.12369 -6.68063 -4.49711 -2.98338 94.58828 0.09269 19.41674 -60.11846 -7.02737 5.20223 3.4293
2.09524 0.30568 0.20046 1.08349 -63.5621 30.93097 -22.27557 11.2341 -0.34466 -52.2281 -7.58999 -0.83074 100.79821 -4.83588 42.21974 18.43584 71.64206 -13.38819 -0.92579 88.28634 22.99195 -53.35509 40.10588 -80.89143 -12.38261 0.54373 102.66148 -16.93631 17.16854 -61.06067 -6.61848 -4.40723 -2.92424 94.03502 0.13661 19.28746 -60.14607 -7.04193 5.20798 3.43378
2.09588 0.30563 0.2 -3.2253 -61.09046 28.72449 -25.6739 9.30395 -0.22221 -52.26062 -7.64389 -0.83074 100.25021 -4.6187 41.5776 18.66762 71.74324 -13.47234 -0.96443 88.51058 22.86701 -53.31016 40.04991 -80.78696 -12.33626 0.44609 100.30053 -17.19835 16.32258 -61.43549 -6.48924 -4.12434 -2.76416 90.81733 0.08601 19.07825 -60.66352 -7.21647 5.3123 3.50236
2.09655 0.30538 0.1994 -8.67582 -57.90203 25.97302 -29.93337 6.90882 -0.05667 -52.13958 -7.68515 -0.83075 99.77277 -4.21662 40.72707 18.86504 72.05936 -13.55909 -0.9699 88.71901 22.7631 -53.2705 39.95409 -80.66898 -12.25703 0.30682 97.25415 -17.41993 15.50464 -61.95824 -6.33921 -3.78402 -2.57451 86.70135 0.00978 18.85608 -61.34404 -7.43683 5.44538 3.58954
2.0972 0.30523 0.19886 -13.30801 -55.21035 23.61261 -33.5783 4.86082 0.08442 -52.08415 -7.73022 -0.83075 99.2697 -3.90104 39.96872 19.07681 72.26624 -13.64429 -0.99622 88.9401 22.65012 -53.24088 39.87199 -80.55424 -12.19482 0.19011 94.67784 -17.65577 14.70483 -62.38508 -6.20569 -3.48737 -2.40835 83.21333 -0.04242 18.66309 -61.91942 -7.62168 5.55652 3.66245
2.09786 0.30503 0.19833 -19.2101 -51.76267 20.63586 -38.19912 2.25201 0.25087 -52.03381 -7.77466 -0.83075 98.74125 -3.56919 39.18932 19.28753 72.50726 -13.73175 -0.99915 89.14066 22.53099 -53.16623 39.80471 -80.44948 -12.12118 0.05622 91.39166 -17.91474 13.76985 -62.93697 -6.04167 -3.11724 -2.20004 78.75952 -0.14596 18.37461 -62.62821 -7.86656 5.70413 3.75927
2.09852 0.30489 0.19776 -22.76052 -49.71789 18.80523 -40.99759 0.68575 0.37162 -51.93584 -7.82483 -0.83076 98.27936 -3.22807 38.42498 19.49473 72.74283 -13.81348 -1.04467 89.37879 22.43212 -53.18007 39.69908 -80.32404 -12.06546 -0.04617 89.42248 -18.11365 13.12253 -63.26423 -5.93605 -2.88506 -2.07167 76.10019 -0.1503 18.27768 -63.09944 -7.99924 5.78372 3.81144
2.09919 0.30498 0.19713 -19.23307 -51.90494 20.42846 -38.31916 2.24017 0.3714 -51.80966 -7.84301 -0.83076 98.01208 -2.92589 37.64469 19.70157 72.78444 -13.88791 -1.18963 89.7283 22.3711 -53.48343 39.49023 -80.12288 -12.05811 -0.11333 91.43667 -18.15761 13.29303 -62.90739 -6.00255 -3.06267 -2.18018 78.84655 0.14154 18.75261 -62.84344 -7.79602 5.65921 3.72961
2.09985 0.30513 0.19647 -13.35019 -55.50245 23.19935 -33.8118 4.83602 0.32051 -51.63094 -7.87673 -0.83076 97.80337 -2.61888 36.90775 19.90742 72.82647 -13.94958 -1.38301 90.11405 22.33106 -53.86702 39.24578 -79.9111 -12.07317 -0.13743 94.77543 -18.14164 13.7477 -62.32362 -6.12768 -3.37848 -2.36861 83.39616 0.53117 19.41368 -62.34768 -7.4811 5.46695 3.60332
2.10052 0.30526 0.19583 -8.74264 -58.34091 25.3452 -30.28877 6.87071 0.28166 -51.43619 -7.93824 -0.83076 97.55065 -2.30164 36.2283 20.11323 72.96556 -14.01796 -1.57098 90.48189 22.29233 -54.18235 39.02285 -79.71126 -12.08255 -0.1398 97.39749 -18.15158 14.0532 -61.86096 -6.22232 -3.62133 -2.51463 86.97615 0.86562 19.96331 -61.98167 -7.22724 5.31182 3.50144
